<?xml version="1.0" standalone="no"?><!DOCTYPE svg PUBLIC "-//W3C//DTD SVG 1.1//EN" "http://www.w3.org/Graphics/SVG/1.1/DTD/svg11.dtd"><svg t="1580871813189" class="icon" viewBox="0 0 1024 1024" version="1.1" xmlns="http://www.w3.org/2000/svg" p-id="2605" xmlns:xlink="http://www.w3.org/1999/xlink" width="200" height="200"><defs><style type="text/css"></style></defs><path d="M240.308104 301.387294c22.136471 42.947765 28.220235 93.967059 34.153411 146.401882C368.217751 316.084706 454.745751 182.151529 445.559868 0c68.306824 32.406588 119.265882 85.112471 161.129412 149.684706 41.381647 63.789176 67.885176 135.378824 88.304941 215.130353 43.580235-54.723765 34.936471-112.609882 21.89553-171.158588l4.969411-5.270589c11.143529 14.305882 22.106353 28.762353 33.340236 42.977883 64.060235 80.775529 113.332706 170.646588 136.82447 275.877647 29.756235 133.240471 2.168471 250.789647-80.293647 353.129412-89.027765 110.501647-201.035294 164.924235-333.974588 163.599058-87.702588-0.873412-164.894118-37.315765-232.839529-98.183529-39.815529-35.689412-76.559059-74.390588-99.568942-126.012235-33.822118-75.896471-30.358588-154.021647-5.421176-231.062589 14.637176-45.266824 36.141176-87.762824 52.976941-132.246588 16.926118-44.875294 31.924706-90.654118 47.405177-135.077647z" fill="#D81E06" p-id="2606"></path><path d="M371.982456 597.654588H284.701515v-82.221176H241.061045v203.836235h43.64047V635.181176h87.280941v84.088471h43.640471v-203.836235H371.982456v82.221176zM531.365045 512c-30.780235 0-55.536941 10.029176-74.270118 30.057412-18.733176 20.058353-28.099765 46.08-28.099765 78.004706 0 30.177882 9.185882 54.814118 27.52753 73.999058 18.341647 19.184941 42.164706 28.762353 71.529412 28.762353 30.057412 0 54.392471-9.878588 72.944941-29.665882 18.552471-19.787294 27.828706-45.568 27.828706-77.312 0-30.448941-8.914824-55.356235-26.774589-74.752-17.859765-19.395765-41.411765-29.093647-70.686117-29.093647z m37.436235 155.105882c-9.517176 12.047059-22.859294 18.070588-39.936 18.070589-16.775529 0-29.936941-6.294588-39.544471-18.883765-9.637647-12.589176-14.426353-28.792471-14.426353-48.609882 0-20.088471 4.909176-36.442353 14.757648-49.091765 9.818353-12.649412 23.280941-18.974118 40.387764-18.974118 16.865882 0 29.876706 6.174118 39.152941 18.522353 9.246118 12.348235 13.854118 29.093647 13.854118 50.326588 0 20.359529-4.728471 36.562824-14.245647 48.64z m53.820235-151.67247v35.538823h58.337883v168.297412h43.760941v-168.327529H783.178692v-35.538824h-160.527059z" fill="#FFFFFF" p-id="2607"></path></svg>