<?xml version="1.0" standalone="no"?><!DOCTYPE svg PUBLIC "-//W3C//DTD SVG 1.1//EN" "http://www.w3.org/Graphics/SVG/1.1/DTD/svg11.dtd"><svg t="1585902403084" class="icon" viewBox="0 0 1024 1024" version="1.1" xmlns="http://www.w3.org/2000/svg" p-id="4038" xmlns:xlink="http://www.w3.org/1999/xlink" width="200" height="200"><defs><style type="text/css"></style></defs><path d="M306.176 461.824c12.8 0 25.6 5.12 35.84 14.848l415.744 411.648c19.968 19.968 19.968 51.712 0.512 71.68s-51.712 19.968-71.68 0.512l-415.744-411.648a50.8416 50.8416 0 0 1-0.512-71.68c9.216-10.752 22.528-15.36 35.84-15.36z" p-id="4039"></path><path d="M717.312 46.08c12.8 0 25.6 5.12 35.84 14.848 19.968 19.968 19.968 51.712 0.512 71.68l-411.648 415.744a50.8416 50.8416 0 0 1-71.68 0.512 50.8416 50.8416 0 0 1-0.512-71.68L681.472 61.44c9.728-10.24 23.04-15.36 35.84-15.36z" p-id="4040"></path></svg>