<?xml version="1.0" standalone="no"?><!DOCTYPE svg PUBLIC "-//W3C//DTD SVG 1.1//EN" "http://www.w3.org/Graphics/SVG/1.1/DTD/svg11.dtd"><svg t="1582170705124" class="icon" viewBox="0 0 1024 1024" version="1.1" xmlns="http://www.w3.org/2000/svg" p-id="10467" xmlns:xlink="http://www.w3.org/1999/xlink" width="200" height="200"><defs><style type="text/css"></style></defs><path d="M854.372174 0c53.737739 0.066783 97.747478 39.66887 102.4 90.112l0.445217 9.015652v825.744696l-0.378434 9.015652c-4.452174 47.482435-43.698087 85.370435-93.050435 89.711304l-9.349565 0.400696H169.561043c-53.670957-0.066783-97.680696-39.66887-102.4-90.112L66.782609 924.872348V100.730435C66.782609 49.018435 109.590261 5.12 162.192696 0.445217l9.349565-0.445217H854.372174zM496.461913 823.785739a7.346087 7.346087 0 0 0-4.697043 7.034435v65.113043c0 4.162783 3.472696 7.590957 7.635478 7.590957h65.625043a7.568696 7.568696 0 0 0 7.056696-4.719304 7.368348 7.368348 0 0 0-1.625044-8.258783l-65.647304-65.046261a7.479652 7.479652 0 0 0-8.347826-1.669565v-0.044522zM809.850435 501.960348l-277.593044 278.260869 81.741913 83.144348 282.534957-279.329391-86.683826-82.075826z m-324.118261 40.158609H275.21113c-14.202435-0.333913-25.956174 13.133913-26.267826 30.163478 0 16.584348 11.753739 30.052174 26.267826 30.052174h210.543305c6.811826 0.200348 13.401043-2.871652 18.342956-8.503652a33.836522 33.836522 0 0 0 7.92487-21.548522c-0.311652-17.007304-12.065391-30.497391-26.267826-30.163478z m283.158261-160.612174H275.300174c-14.246957-0.356174-26.045217 13.089391-26.379131 30.052174 0 16.695652 11.798261 30.163478 26.379131 30.163478H768.890435c6.856348 0.178087 13.512348-2.893913 18.476522-8.548174a33.836522 33.836522 0 0 0 7.969391-21.593044c-0.333913-17.007304-12.176696-30.47513-26.445913-30.074434z m0.066782-180.71374H275.322435c-14.246957-0.333913-26.045217 13.089391-26.401392 30.052174 0 16.695652 11.798261 30.163478 26.401392 30.163479h493.612522c14.246957 0.356174 26.067478-13.133913 26.37913-30.141218-0.333913-16.985043-12.132174-30.408348-26.37913-30.074435z" p-id="10468" fill="#f8a944"></path></svg>