<?xml version="1.0" standalone="no"?><!DOCTYPE svg PUBLIC "-//W3C//DTD SVG 1.1//EN" "http://www.w3.org/Graphics/SVG/1.1/DTD/svg11.dtd"><svg t="1581060238561" class="icon" viewBox="0 0 1024 1024" version="1.1" xmlns="http://www.w3.org/2000/svg" p-id="1644" xmlns:xlink="http://www.w3.org/1999/xlink" width="200" height="200"><defs><style type="text/css"></style></defs><path d="M505.523547 842.010639 252.923851 842.010639C239.009038 842.010639 225.351849 829.391362 225.351849 816.540966 225.351849 754.748597 300.974255 643.067742 379.677863 601.061566 388.124636 596.553302 417.085893 588.335977 417.085893 588.335977 417.085893 588.335977 415.917374 587.483017 394.328837 574.96978 372.740302 562.456544 371.18979 560.787401 371.18979 560.787401 371.18979 560.787401 366.327089 560.787401 359.086714 563.999578 268.164164 604.337173 181.333333 731.7767 181.333333 816.540966 181.333333 853.560198 214.787193 886.023854 252.923851 886.023854L505.52355 886.023854 758.123248 886.023854C796.264147 886.023854 829.713765 853.560198 829.713765 816.540966 829.713765 731.7767 741.665073 606.68015 651.960385 563.999578 649.736849 562.940311 640.237422 558.114635 640.237422 558.114635 640.237422 558.114635 633.69416 564.41047 624.378789 571.292208 615.06342 578.173946 603.860308 584.654845 603.860308 584.654845 603.860308 584.654845 629.794011 597.595804 634.823095 599.991508 715.604281 638.419715 785.699491 754.748597 785.699491 816.540966 785.699491 829.395603 772.042302 842.010639 758.123248 842.010639L505.52355 842.010639Z" p-id="1645" fill="#ffffff"></path><path d="M508.823878 561.001399C389.521191 561.001399 292.461002 463.941209 292.461002 344.638523 292.461002 225.340077 389.521191 128.279887 508.823878 128.279887 628.123385 128.279887 725.182514 225.340077 725.182514 344.642764 725.182514 463.941209 628.123385 561.001399 508.823878 561.001399L508.823878 561.001399ZM508.823878 172.298402C413.789684 172.298402 336.475276 249.61175 336.475276 344.638523 336.475276 439.673776 413.789684 516.988185 508.823878 516.988185 603.850651 516.988185 681.165059 439.673776 681.165059 344.647004 681.165059 249.607509 603.850651 172.298402 508.823878 172.298402L508.823878 172.298402Z" p-id="1646" fill="#ffffff"></path></svg>