<?xml version="1.0" standalone="no"?><!DOCTYPE svg PUBLIC "-//W3C//DTD SVG 1.1//EN" "http://www.w3.org/Graphics/SVG/1.1/DTD/svg11.dtd"><svg t="1582959963887" class="icon" viewBox="0 0 1024 1024" version="1.1" xmlns="http://www.w3.org/2000/svg" p-id="3570" xmlns:xlink="http://www.w3.org/1999/xlink" width="200" height="200"><defs><style type="text/css"></style></defs><path d="M590.336 385.024c15.36-14.848 15.872-39.936 1.024-55.296-14.848-15.872-38.912-15.872-54.272-1.024s-15.872 39.936-1.024 55.296c14.848 15.36 39.424 15.872 54.272 1.024zM534.528 692.224h25.088v13.312h-25.088zM534.528 711.168h25.088v13.312h-25.088zM451.584 725.504h40.448v10.24h-40.448zM356.864 677.888l-1.536 6.144c3.072 14.336 6.656 27.136 11.776 37.888 5.12-12.288 7.68-27.136 8.192-43.52h-18.432zM587.776 664.064h24.064v22.528h-24.064zM297.984 712.704h15.36v21.504h-15.36zM451.584 710.656h40.448v10.24h-40.448zM534.528 672.768h25.088v13.312h-25.088z" p-id="3571"></path><path d="M512 0c-282.624 0-512 229.376-512 512s229.376 512 512 512S1024 794.624 1024 512s-229.376-512-512-512z m-226.816 663.04h14.848v-10.752h6.144v10.752h18.432v-10.24h6.144v10.24h13.312v6.144h-13.312v10.752h-6.144v-10.752h-18.432v9.216h-6.144v-9.216h-14.848v-6.144z m50.688 82.944c-1.024 8.704-5.632 12.8-14.336 12.8h-11.264l-1.536-5.632c4.608 0 8.704 0.512 12.288 0.512 5.12 0 8.192-3.072 8.704-9.216 1.024-5.632 1.536-22.016 1.536-50.176h-31.744c-3.584 7.168-7.68 13.312-12.288 18.432l-4.096-4.608c6.656-7.68 11.776-16.896 15.872-28.16l6.144 1.536c-1.536 4.608-2.56 6.656-2.56 7.168h34.816c0 29.696-0.512 49.152-1.536 57.344z m-43.52-6.656V707.072h26.624v32.256h-26.624z m95.744 19.968c-8.192-6.144-14.848-14.336-20.992-24.576-5.632 10.24-13.312 18.432-22.528 25.088l-3.584-5.632c9.728-6.656 17.408-15.36 22.528-25.6-4.608-10.24-8.704-21.504-11.776-34.816-2.048 5.12-4.608 10.24-7.68 14.848l-4.096-4.608c7.68-12.8 12.8-29.696 15.36-51.2l6.144 1.024c-1.024 6.144-2.048 12.288-3.072 17.92h30.72v6.144h-8.192c-0.512 19.456-4.096 36.352-10.752 50.688 6.144 11.264 13.312 19.456 21.504 25.6l-3.584 5.12z m35.84-199.68c-8.704 1.536-4.096-11.264-9.728-17.92-5.632-6.656-23.04 0.512-32.768 5.12-5.12 2.048-10.24 3.584-12.8 1.536-2.048-3.072-0.512-8.192 2.048-12.8 5.12-9.728 12.8-27.136 6.144-33.28-6.144-6.144-18.944-2.048-17.408-10.752 1.536-8.704 24.576-33.28 31.232-33.792 6.656-0.512 12.8 4.096 14.336 14.848 1.536 12.288 6.656 20.992 12.8 27.648 6.144 6.656 14.336 12.288 26.624 14.336 10.752 2.048 15.36 8.192 14.336 14.848-1.536 6.656-26.112 28.672-34.816 30.208z m10.24 113.152l-4.096 4.608c-5.12-6.144-12.288-11.776-20.48-18.432l4.608-4.096c7.68 5.632 14.336 11.776 19.968 17.92z m-15.872 82.432l-2.56-5.632c1.536-1.536 2.56-3.072 2.56-4.608v-49.152h-17.408v-6.144h23.552V742.912c3.584-3.072 7.68-7.168 12.288-12.288l1.536 6.656c-6.144 6.656-12.8 12.288-19.968 17.92z m79.36-4.608c0 5.632-3.072 8.704-9.216 8.704h-9.728l-1.536-5.632 9.728 0.512c3.072 0 4.608-1.536 4.608-4.608v-8.192h-40.448v18.944h-6.144v-54.784h52.224v45.056z m9.728-54.272h-71.168v-5.632h32.256V681.472h-24.576v-5.12h24.576v-9.216h-29.184v-5.632h29.184v-8.192h6.144v8.192h29.696v5.632h-29.696v9.216h25.088v5.12h-25.088v9.216h32.768v5.632z m2.56-118.784c-18.432 4.608-20.992-15.872-21.504-23.04-0.512-7.168 4.608-46.592-0.512-49.664 0 0-4.096-6.144-15.36-6.656-11.264-0.512-26.624-6.144-36.352-14.848-8.192-9.728-13.312-26.112-13.312-37.376 0-11.776-6.144-15.872-6.144-15.872-3.072-5.12-41.984-1.536-48.64-2.56-7.168-1.024-27.136-4.096-21.504-23.04 5.12-18.944 55.808-72.192 76.288-77.312 11.264-3.072 15.36-7.68 61.44-4.608 80.384-79.36 188.928-78.336 195.584-77.824 0 6.656-3.072 117.76-83.968 196.096 1.024 46.592-3.584 51.2-6.656 62.464-7.168 19.968-61.44 69.12-79.36 74.24z m10.24 95.232v-6.144h8.192v-13.824h6.144v13.824h25.088v-13.312h6.144v13.312h7.68v6.144h-7.68v51.712h8.192v5.632h-54.784v-5.632h9.216v-51.712h-8.192z m3.072 86.528l-5.12-3.584c6.144-5.632 11.264-12.8 15.872-20.992l5.12 2.56c-4.096 8.192-9.728 15.872-15.872 22.016z m39.424-1.536c-3.072-5.632-7.168-12.288-12.8-19.456l5.12-3.072c5.632 6.656 9.728 13.312 13.312 18.944l-5.632 3.584z m55.808-9.216c0 6.656-3.072 10.24-9.216 10.24h-12.8l-1.536-6.144h12.288c3.584 0 5.12-2.048 5.12-6.656v-25.088h-24.576c-1.536 15.36-6.144 28.16-14.336 38.4l-5.12-4.096c8.704-11.264 12.8-26.112 13.312-43.52v-53.76h36.864v90.624z m41.984-96.256l5.632 2.56c-6.144 13.312-16.384 25.088-29.696 35.328l-2.048-6.144c11.776-9.728 20.48-19.968 26.112-31.744z m-2.048 48.64v58.88h-6.144v-51.2c-5.12 5.12-9.728 9.728-15.36 13.824l-2.048-6.144c13.312-10.752 23.04-23.04 28.672-36.864l5.632 2.56c-2.56 6.144-6.144 12.8-10.752 18.944z m20.48 24.576l5.12-3.072c7.168 6.656 12.288 12.288 16.384 17.92l-5.12 3.584c-4.096-5.12-9.216-11.264-16.384-18.432z m60.416-9.216h-14.336v32.768c0 6.656-3.584 9.728-10.24 9.728h-16.896l-1.536-6.144c7.68 0.512 12.8 0.512 15.872 0.512 4.096 0 6.144-2.048 6.144-5.632v-31.232h-46.08v-6.144h46.08v-9.216h6.144v9.216h14.336v6.144z m1.536-22.016h-68.608v-6.144h30.72v-16.384h-26.624V666.112h26.624v-13.312h6.144v13.312h27.136v6.144h-27.136v16.384h31.744v5.632z" p-id="3572"></path><path d="M612.352 692.224h-24.576v23.04h24.576z" p-id="3573"></path></svg>