<?xml version="1.0" standalone="no"?><!DOCTYPE svg PUBLIC "-//W3C//DTD SVG 1.1//EN" "http://www.w3.org/Graphics/SVG/1.1/DTD/svg11.dtd"><svg t="1581060775521" class="icon" viewBox="0 0 1024 1024" version="1.1" xmlns="http://www.w3.org/2000/svg" p-id="5058" xmlns:xlink="http://www.w3.org/1999/xlink" width="200" height="200"><defs><style type="text/css"></style></defs><path d="M852.48 135.68H325.12c-20.48 0-38.4 17.92-38.4 38.4s17.92 38.4 38.4 38.4h527.36c20.48 0 38.4-17.92 38.4-38.4 0-23.04-17.92-38.4-38.4-38.4z m-678.4 0c-20.48 0-35.84 15.36-35.84 38.4 0 20.48 17.92 38.4 38.4 38.4s38.4-17.92 38.4-38.4c-2.56-23.04-17.92-38.4-40.96-38.4z m678.4 337.92H325.12c-20.48 0-38.4 17.92-38.4 38.4s17.92 38.4 38.4 38.4h527.36c20.48 0 38.4-17.92 38.4-38.4s-17.92-38.4-38.4-38.4z m-678.4 0c-20.48 0-38.4 17.92-38.4 38.4s17.92 38.4 38.4 38.4 38.4-17.92 38.4-38.4-15.36-38.4-38.4-38.4z m678.4 343.04H325.12c-20.48 0-38.4 17.92-38.4 38.4s17.92 38.4 38.4 38.4h527.36c20.48 0 38.4-17.92 38.4-38.4 0-23.04-17.92-38.4-38.4-38.4z m-678.4 0c-20.48 0-38.4 17.92-38.4 38.4s17.92 38.4 38.4 38.4 38.4-17.92 38.4-38.4c0-23.04-15.36-38.4-38.4-38.4z" p-id="5059" fill="#ffffff"></path></svg>