<?xml version="1.0" standalone="no"?><!DOCTYPE svg PUBLIC "-//W3C//DTD SVG 1.1//EN" "http://www.w3.org/Graphics/SVG/1.1/DTD/svg11.dtd"><svg t="1580915822835" class="icon" viewBox="0 0 1024 1024" version="1.1" xmlns="http://www.w3.org/2000/svg" p-id="3790" xmlns:xlink="http://www.w3.org/1999/xlink" width="200" height="200"><defs><style type="text/css"></style></defs><path d="M161.3 542.4L4.4 776.6c-4.8 8.3-5.2 18.4-0.9 27 4.3 8.6 12.6 14.5 22.1 15.7L199.5 842l106.7 138.3c5.9 7.6 15.2 11.8 24.8 11.2 9.6-0.6 18.3-6 23.1-14.3l148.7-219.5c-150.4-1.4-280.1-88.9-341.5-215.3z m858.3 235.2l-143.9-233c-62.1 125.8-192.2 212.5-342.7 213l136.8 220.5c4.8 8.3 13.5 13.6 23.1 14.3 9.6 0.6 18.9-3.6 24.8-11.2l106.7-138.4 174-22.5c9.6-1.2 17.9-7.1 22.2-15.7 4.2-8.6 3.9-18.8-1-27zM867 377c0-190.8-155.8-345.4-347.9-345.4C327 31.6 171.3 186.2 171.3 377c0 190.8 155.8 345.4 347.9 345.4C711.3 722.5 867 567.8 867 377z m-456.4 54.6h-20L313 316.5v115.2h-18.7V285h20l77.5 115.1V285h18.7v146.6z m143.4 0H443.8V285h106.7v17.3h-87.2v44.9H545v17.2h-81.7v49.9H554v17.3z m162.9 0h-18.8L667 320c-2.6-9.3-4.2-15.1-4.6-17.2-1.5 6.7-3 12.5-4.3 17.2l-31.3 111.7h-19.9L567.6 285h20l22.5 96.1c2.4 10.1 4.5 20.1 6.2 30 3.8-15.7 6-24.7 6.6-27.1l28.1-99h23.6l21.1 74.2c5.3 18.4 9.1 35.7 11.5 51.9 1.9-9.3 4.3-19.9 7.4-31.9l23.2-94.2h19.6l-40.5 146.6z" fill="#586596" p-id="3791"></path></svg>