<?xml version="1.0" standalone="no"?><!DOCTYPE svg PUBLIC "-//W3C//DTD SVG 1.1//EN" "http://www.w3.org/Graphics/SVG/1.1/DTD/svg11.dtd"><svg t="1580915687087" class="icon" viewBox="0 0 1024 1024" version="1.1" xmlns="http://www.w3.org/2000/svg" p-id="2977" xmlns:xlink="http://www.w3.org/1999/xlink" width="200" height="200"><defs><style type="text/css"></style></defs><path d="M991.51488 431.3152c0 66.20416-53.6768 119.8784-119.8784 119.8784-66.20416 0-119.8784-53.67552-119.8784-119.8784l0 0 0 0 0 0c0 66.20416-53.67552 119.8784-119.8784 119.8784-66.20416 0-119.87968-53.67552-119.87968-119.8784l0 0 0 0 0 0 0 0c0 66.20416-53.67552 119.8784-119.8784 119.8784-66.20288 0-119.8784-53.67552-119.8784-119.8784l0 0 0 0 0 0 0 0c0 66.20416-53.67552 119.8784-119.8784 119.8784-66.20288 0-119.8784-53.67552-119.8784-119.8784l0 0 0 0 0 0L116.7744 206.54336 907.2256 206.54336 991.51488 431.3152 991.51488 431.3152 991.51488 431.3152 991.51488 431.3152zM841.66528 161.58976 182.33344 161.58976c-24.82944 0-44.9536-20.12544-44.9536-44.95488 0-24.82944 20.12544-44.9536 44.9536-44.9536l659.33184 0c24.83072 0 44.95488 20.12544 44.95488 44.9536C886.62016 141.46432 866.496 161.58976 841.66528 161.58976L841.66528 161.58976zM167.34848 595.41504l0-0.03072c4.3008-0.38912 8.52736-1.03296 12.73728-1.75232 0.89856-0.16384 1.8432-0.22528 2.74176-0.40448 1.9328-0.35968 3.80672-0.91392 5.72544-1.34912 8.13568-1.85728 16.1088-4.16512 23.76576-7.16288l0 0.02944 0 0 0 221.19168 599.392 0L811.71072 584.76032l0 0 0-0.02944c7.64288 2.9824 15.60064 5.29024 23.73632 7.14752 1.91872 0.4352 3.80544 0.98944 5.75488 1.34912 0.89856 0.16384 1.82784 0.23936 2.7264 0.38912 4.2112 0.71936 8.43648 1.3632 12.73728 1.75232l0 0.03072c4.91392 0.48 9.92 0.7488 14.9696 0.7488 10.25024 0 20.2432-1.06368 29.96992-2.848l0 302.54336c0 24.82944-20.12544 44.95488-44.9536 44.95488L167.34848 940.79872c-24.82944 0-44.95488-20.12416-44.95488-44.95488L122.3936 593.30176c9.72544 1.78304 19.71968 2.848 29.96992 2.848C157.42848 596.14976 162.41792 595.87968 167.34848 595.41504L167.34848 595.41504z" p-id="2978" fill="#586596"></path></svg>