<?xml version="1.0" standalone="no"?><!DOCTYPE svg PUBLIC "-//W3C//DTD SVG 1.1//EN" "http://www.w3.org/Graphics/SVG/1.1/DTD/svg11.dtd"><svg t="1581060563365" class="icon" viewBox="0 0 1024 1024" version="1.1" xmlns="http://www.w3.org/2000/svg" p-id="3476" xmlns:xlink="http://www.w3.org/1999/xlink" width="200" height="200"><defs><style type="text/css"></style></defs><path d="M452.512 711.792" p-id="3477" fill="#ffffff"></path><path d="M458.576 137.584c165.056 0 299.344 134.288 299.344 299.328s-134.288 299.328-299.344 299.328c-165.056 0-299.328-134.288-299.328-299.328S293.52 137.584 458.576 137.584M458.576 73.584c-200.672 0-363.328 162.672-363.328 363.328 0 200.672 162.672 363.328 363.328 363.328S821.92 637.584 821.92 436.912C821.92 236.24 659.248 73.584 458.576 73.584L458.576 73.584z" p-id="3478" fill="#ffffff"></path><path d="M690.88 667.792l-46.192 44.32 218.8 228 0.048-0.048c14.24 14.272 35.632 16.208 48.208 4.128s11.552-33.536-2.144-48.336l0.08-0.08L690.88 667.792z" p-id="3479" fill="#ffffff"></path></svg>