<?xml version="1.0" standalone="no"?><!DOCTYPE svg PUBLIC "-//W3C//DTD SVG 1.1//EN" "http://www.w3.org/Graphics/SVG/1.1/DTD/svg11.dtd"><svg t="1582170037573" class="icon" viewBox="0 0 1024 1024" version="1.1" xmlns="http://www.w3.org/2000/svg" p-id="5332" xmlns:xlink="http://www.w3.org/1999/xlink" width="200" height="200"><defs><style type="text/css"></style></defs><path d="M810.703 64.859H213.592c-82.446 0-149.281 66.835-149.281 149.283v447.839c0 82.442 66.835 149.283 149.281 149.283h149.277L509.924 960.54l151.508-149.276h149.271c82.452 0 149.276-66.841 149.276-149.283V214.142c0-82.442-66.824-149.283-149.276-149.283zM512.139 363.418c41.224 0 74.641 33.423 74.641 74.641 0 41.222-33.418 74.64-74.641 74.64-41.218 0-74.636-33.418-74.636-74.64 0-41.218 33.418-74.641 74.636-74.641zM288.233 512.699c-41.224 0-74.641-33.418-74.641-74.64 0-41.218 33.418-74.641 74.641-74.641 41.218 0 74.636 33.423 74.636 74.641 0 41.223-33.418 74.64-74.636 74.64z m447.84 0c-41.224 0-74.641-33.418-74.641-74.64 0-41.218 33.418-74.641 74.641-74.641 41.218 0 74.64 33.423 74.64 74.641 0 41.223-33.422 74.64-74.64 74.64z m0 0" fill="#f8a944" p-id="5333"></path></svg>