<?xml version="1.0" standalone="no"?><!DOCTYPE svg PUBLIC "-//W3C//DTD SVG 1.1//EN" "http://www.w3.org/Graphics/SVG/1.1/DTD/svg11.dtd"><svg t="1579581589175" class="icon" viewBox="0 0 1024 1024" version="1.1" xmlns="http://www.w3.org/2000/svg" p-id="3488" xmlns:xlink="http://www.w3.org/1999/xlink" width="200" height="200"><defs><style type="text/css"></style></defs><path d="M926.576789 444.328081h-12.25697a12.272485 12.272485 0 1 0 0 24.520404h12.25697v12.262141a12.272485 12.272485 0 0 0 12.258262 11.702303 12.272485 12.272485 0 0 0 12.262142-11.702303v-12.262141h12.256969a12.272485 12.272485 0 0 0 0-24.520404h-12.256969v-12.25697a12.269899 12.269899 0 0 0-12.262142-11.702303 12.268606 12.268606 0 0 0-12.258262 11.702303v12.25697zM48.844587 235.924687a22.080646 22.080646 0 0 0 11.035151 19.115959 22.084525 22.084525 0 0 0 22.070303 0 22.079354 22.079354 0 0 0 11.036445-19.115959 22.065131 22.065131 0 0 0-11.036445-19.112081 22.065131 22.065131 0 0 0-22.070303 0A22.066424 22.066424 0 0 0 48.844587 235.924687z m0 0" fill="#D8D8D8" p-id="3489"></path><path d="M796.072385 787.580121l-115.475394-279.504161H211.465354l-115.474101 279.504161h-3.020282v235.373899h706.111353V787.580121h-3.009939z m0 0" fill="#ECECEC" p-id="3490"></path><path d="M799.092667 1022.95402H92.986486V787.580121h3.020282l115.474101-279.504161h469.131637l115.474101 279.504161h2.19798l0.822303 6.617212v228.756687h-0.014223zM106.213152 1009.711838H785.840142l-0.319353-212.999757-113.777778-275.39394H220.308991L106.213152 797.494303v212.217535z m0 0" fill="#CCCCCC" p-id="3491"></path><path d="M213.505597 697.297455L105.667536 1005.398626l13.888647 4.858829 107.839353-308.101172-13.889939-4.858828z m465.056323 0l107.832889 308.101171-13.888647 4.858829-107.832888-308.101172 13.888646-4.858828z m0 0" fill="#CCCCCC" p-id="3492"></path><path d="M372.471253 787.580121H92.970971v235.373899h706.111353V787.580121h-279.505455a73.567677 73.567677 0 0 1-36.485171 64.526222 73.572848 73.572848 0 0 1-74.131394 0 73.56897 73.56897 0 0 1-36.489051-64.526222z m0 0" fill="#FBFBFB" p-id="3493"></path><path d="M799.092667 1022.95402H92.986486V787.580121h279.246868l0.505536 6.076768c3.084929 37.837576 35.29697 67.479273 73.307798 67.479273 38.025051 0 70.221576-29.626182 73.307798-67.479273l0.49002-6.076768h279.262384v235.373899h-0.014223zM106.213152 1009.711838H785.840142V800.818424H531.79893c-6.424566 41.707313-42.989899 73.559919-85.778101 73.559919-42.792081 0-79.358707-31.843556-85.78198-73.559919H106.213152v208.893414z m0 0" fill="#CCCCCC" p-id="3494"></path><path d="M740.243698 243.287919l102.97406 44.126384 58.838627-220.666828zM902.056385 66.747475L622.556102 199.14602 710.824385 243.287919zM740.243698 257.99499v73.545697l44.141899-44.126384z" fill="#D8D8D8" p-id="3495"></path><path d="M210.657274 508.07596h470.747798v205.959757H210.657274z" fill="#E2E2E2" p-id="3496"></path><path d="M681.394728 714.020202H210.657274V508.07596h470.737454V714.020202zM223.900748 700.783192h444.251798V521.318141H223.900748v179.465051z m0 0" fill="#CCCCCC" p-id="3497"></path><path d="M338.990849 654.28299a858.718384 858.718384 0 0 0 26.308526-13.71798 7.363232 7.363232 0 0 0 2.762989-9.883151 7.361939 7.361939 0 0 0-9.808161-3.035798 825.537939 825.537939 0 0 1-25.858586 13.474909 7.361939 7.361939 0 0 0 6.595232 13.16202z m52.151596-28.465131a593.441616 593.441616 0 0 0 25.166869-15.939233 7.356768 7.356768 0 1 0-8.197172-12.22206 583.033535 583.033535 0 0 1-24.544969 15.544889 7.364525 7.364525 0 0 0-2.333738 9.980121 7.364525 7.364525 0 0 0 9.90901 2.636283z m49.581253-33.388606a387.113374 387.113374 0 0 0 23.140848-19.081051 7.34901 7.34901 0 1 0-9.797818-10.958869c-6.883556 6.155636-14.307556 12.272485-22.268121 18.34796a7.356768 7.356768 0 0 0-1.12097 10.105535 7.359354 7.359354 0 0 0 10.046061 1.586425z m44.68105-40.252768a239.294061 239.294061 0 0 0 19.131475-23.564929 7.359354 7.359354 0 0 0-1.969131-9.934869 7.360646 7.360646 0 0 0-10.025374 1.433858 223.127273 223.127273 0 0 1-17.965253 22.111677 7.341253 7.341253 0 0 0 0.44994 10.393859c3.004768 2.752646 7.641212 2.556121 10.378343-0.439596z m35.167677-50.56a7.360646 7.360646 0 1 1-13.252525-6.394828c4.181333-8.685899 7.398141-17.423515 9.650424-26.242586a7.360646 7.360646 0 0 1 14.258424 3.642182 155.60404 155.60404 0 0 1-10.656323 28.995232z m14.337293-59.959596a60.992646 60.992646 0 0 0-10.802424-31.575919 7.352889 7.352889 0 1 0-12.07596 8.393697c4.808404 6.909414 7.611475 14.94497 8.197172 24.096323a7.360646 7.360646 0 0 0 14.681212-0.914101z m-36.17099-53.369535a97.745455 97.745455 0 0 0-30.303677-9.757738 7.363232 7.363232 0 0 0-6.928808 2.632404 7.350303 7.350303 0 0 0-1.131313 7.323152 7.374869 7.374869 0 0 0 5.823354 4.59507 82.791434 82.791434 0 0 1 25.707313 8.233374 7.359354 7.359354 0 0 0 7.535192-0.102141 7.37099 7.37099 0 0 0 3.499959-6.671515 7.365818 7.365818 0 0 0-4.20202-6.252606z m-62.964364-9.585778c-12.56598 2.212202-23.277899 6.935273-30.637252 13.93002a7.343838 7.343838 0 0 0 2.964687 12.378505 7.346424 7.346424 0 0 0 7.147313-1.711838c5.060525-4.792889 13.146505-8.36396 23.080081-10.112a7.369697 7.369697 0 0 0 5.632-4.72695 7.355475 7.355475 0 0 0-8.186829-9.757737z m-39.576565 48.985212c2.596202 8.883717 8.22303 18.217374 16.868848 27.949252a7.350303 7.350303 0 0 0 10.378344 0.611556 7.356768 7.356768 0 0 0 0.611555-10.383515c-7.307636-8.22303-11.822545-15.71297-13.742545-22.29398a7.350303 7.350303 0 0 0-5.312647-5.079919 7.345131 7.345131 0 0 0-7.055515 2.055757 7.343838 7.343838 0 0 0-1.74804 7.140849z m41.151353 49.369212a101.40703 101.40703 0 0 0 28.712081 13.428364 7.351596 7.351596 0 0 0 4.026182-14.140768 86.551273 86.551273 0 0 1-24.556606-11.505778 7.359354 7.359354 0 0 0-9.923232 2.20703 7.356768 7.356768 0 0 0 1.741575 10.011152z m60.59701 17.065374a7.352889 7.352889 0 1 1-0.637414-14.691556 108.925414 108.925414 0 0 0 27.12695-4.848485 7.360646 7.360646 0 0 1 7.31798 1.550223 7.359354 7.359354 0 0 1-3.015112 12.524606 123.222626 123.222626 0 0 1-30.792404 5.465212z m60.863354-18.151435a231.320566 231.320566 0 0 0 25.747394-16.111192 7.361939 7.361939 0 0 0 1.433858-10.070626 7.365818 7.365818 0 0 0-9.999515-1.883798c-8.08598 5.797495-16.151273 10.842505-24.120889 15.091071a7.369697 7.369697 0 0 0-4.116686 6.287515 7.354182 7.354182 0 0 0 3.54004 6.621091 7.369697 7.369697 0 0 0 7.515798 0.065939z m48.323232-34.03507a373.933253 373.933253 0 0 0 21.767758-20.657132 7.364525 7.364525 0 0 0-0.257293-10.277495 7.365818 7.365818 0 0 0-10.28396 0.005172 363.739798 363.739798 0 0 1-20.90408 19.847758 7.359354 7.359354 0 0 0 9.677575 11.081697z m42.378344-43.373899a516.447677 516.447677 0 0 0 18.616889-23.328324 7.360646 7.360646 0 0 0-1.621334-10.080969 7.360646 7.360646 0 0 0-10.136565 1.237333 491.101091 491.101091 0 0 1-18.071273 22.650828 7.364525 7.364525 0 0 0 1.040808 10.136566 7.358061 7.358061 0 0 0 10.171475-0.615434z m36.358464-48.364606a585.00396 585.00396 0 0 0 15.939233-25.156526 7.34901 7.34901 0 0 0-2.530263-10.084848 7.343838 7.343838 0 0 0-10.084848 2.525091 574.704485 574.704485 0 0 1-15.561697 24.54497 7.359354 7.359354 0 0 0-0.691718 7.505454 7.350303 7.350303 0 0 0 6.26295 4.181333 7.351596 7.351596 0 0 0 6.666343-3.515474z m30.328243-50.45398a608.306424 608.306424 0 0 0 8.499717-16.394344 7.363232 7.363232 0 0 0-13.146505-6.58101 612.490343 612.490343 0 0 1-8.296727 16.010344 7.345131 7.345131 0 0 0 2.989252 9.954262 7.34901 7.34901 0 0 0 9.954263-2.989252z m0 0" fill="#CCCCCC" p-id="3498"></path><path d="M446.031173 73.368566c-19.873616 0-36.035232-16.166788-36.035233-36.035233 0-19.873616 16.161616-36.040404 36.035233-36.040404 19.873616 0 36.040404 16.166788 36.040404 36.040404 0 19.868444-16.166788 36.035232-36.040404 36.035233z m0-58.838627c-12.57503 0-22.798222 10.221899-22.798223 22.803394 0 12.57503 10.223192 22.798222 22.798223 22.798223 12.581495 0 22.798222-10.223192 22.798222-22.798223 0-12.581495-10.216727-22.803394-22.798222-22.803394z m0 0" fill="#D8D8D8" p-id="3499"></path></svg>