<?xml version="1.0" standalone="no"?><!DOCTYPE svg PUBLIC "-//W3C//DTD SVG 1.1//EN" "http://www.w3.org/Graphics/SVG/1.1/DTD/svg11.dtd"><svg t="1580917155812" class="icon" viewBox="0 0 1024 1024" version="1.1" xmlns="http://www.w3.org/2000/svg" p-id="7728" xmlns:xlink="http://www.w3.org/1999/xlink" width="200" height="200"><defs><style type="text/css"></style></defs><path d="M839.68 355.84l138.24-79.36c25.6-15.36 46.08-2.56 46.08 23.04v401.92c0 28.16-20.48 38.4-46.08 23.04l-138.24-79.36c-25.6-15.36-46.08-30.72-46.08-56.32V409.6c0-25.6 20.48-38.4 46.08-53.76zM619.52 204.8H97.28C43.52 204.8 0 248.32 0 302.08v419.84c0 53.76 43.52 97.28 97.28 97.28h522.24c53.76 0 97.28-43.52 97.28-97.28V302.08c0-53.76-43.52-97.28-97.28-97.28zM304.64 440.32c-7.68 35.84-35.84 64-69.12 71.68-64 12.8-117.76-43.52-104.96-104.96 7.68-35.84 35.84-64 69.12-69.12 64-15.36 117.76 38.4 104.96 102.4z" p-id="7729" fill="#586596"></path></svg>